<?xml version="1.0" encoding="iso-8859-1"?>
<!-- Generator: Adobe Illustrator 18.0.0, SVG Export Plug-In . SVG Version: 6.00 Build 0)  -->
<!DOCTYPE svg PUBLIC "-//W3C//DTD SVG 1.1//EN" "http://www.w3.org/Graphics/SVG/1.1/DTD/svg11.dtd">
<svg version="1.1" id="Capa_1" xmlns="http://www.w3.org/2000/svg" xmlns:xlink="http://www.w3.org/1999/xlink" x="0px" y="0px"
	 viewBox="0 0 410.46 410.46" style="enable-background:new 0 0 410.46 410.46;" xml:space="preserve">
<g>
	<rect x="168.581" y="28.209" style="fill:#999999;" width="135.033" height="63.251"/>
	<rect x="198.496" y="44.323" style="fill:#808080;" width="62.047" height="31.023"/>
	<path style="fill:#CCCCCC;" d="M199.942,89.99L84.655,205.276l-51.708-51.708L148.234,38.282c14.279-14.279,37.429-14.279,51.708,0
		l0,0C214.221,52.561,214.221,75.711,199.942,89.99z"/>
	<path style="fill:#999999;" d="M153.139,198.605L153.139,198.605c-40.844,0-73.954,33.11-73.954,73.953v113.839h147.907V272.558
		C227.093,231.715,193.983,198.605,153.139,198.605z"/>
	<g>
		<circle style="fill:#CCCCCC;" cx="153.139" cy="273.76" r="60.305"/>
		<path style="fill:#808080;" d="M153.139,336.281c-16.7,0-32.4-6.503-44.209-18.312c-24.377-24.376-24.377-64.041,0-88.417
			c11.809-11.808,27.509-18.312,44.209-18.312c16.701,0,32.401,6.503,44.209,18.312l0,0l0,0
			c11.809,11.808,18.312,27.509,18.312,44.209s-6.503,32.4-18.312,44.209C185.54,329.777,169.84,336.281,153.139,336.281z
			 M153.139,215.672c-15.516,0-30.104,6.042-41.075,17.013c-22.649,22.649-22.649,59.501,0,82.15
			c10.972,10.972,25.559,17.013,41.075,17.013s30.104-6.042,41.075-17.013c10.972-10.972,17.013-25.559,17.013-41.075
			s-6.042-30.104-17.013-41.075l0,0C183.242,221.714,168.655,215.672,153.139,215.672z"/>
	</g>
	<path style="fill:#999999;" d="M32.947,153.568L32.947,153.568c-15.252,15.252-15.252,39.979,0,55.231l92.835,92.835
		c15.252,15.252,39.979,15.252,55.231,0l0,0c15.252-15.252,15.252-39.979,0-55.231l-92.835-92.835
		C72.927,138.317,48.199,138.317,32.947,153.568z"/>
	<circle style="fill:#CCCCCC;" cx="153.139" cy="273.76" r="15.349"/>
	<circle style="fill:#CCCCCC;" cx="60.798" cy="181.419" r="15.349"/>
	<rect x="18.068" y="386.397" style="fill:#808080;" width="340.905" height="24.063"/>
	<path style="fill:#CCCCCC;" d="M392.392,78.112c0,22.946-18.603,41.549-41.549,41.549h-28.575
		c-27.356,0-49.537-22.171-49.537-49.538V49.549C272.73,22.182,294.912,0,322.268,0h28.575c11.479,0,21.86,4.653,29.383,12.166
		c7.512,7.523,12.166,17.905,12.166,29.383h-62.047v36.563H392.392z"/>
	<circle style="fill:#999999;" cx="302.336" cy="59.835" r="15.349"/>
	<g>
		<circle style="fill:#CCCCCC;" cx="108.142" cy="360.231" r="15.349"/>
		<circle style="fill:#CCCCCC;" cx="198.137" cy="360.231" r="15.349"/>
	</g>
	<circle style="fill:#999999;" cx="178.553" cy="59.835" r="15.349"/>
	<rect x="330.345" y="78.112" style="fill:#999999;" width="15.512" height="41.549"/>
	<g>
		
			<rect x="96.113" y="116.627" transform="matrix(0.7071 -0.7071 0.7071 0.7071 -66.2429 112.1095)" style="fill:#808080;" width="12.188" height="38.779"/>
		
			<rect x="113.543" y="99.197" transform="matrix(0.7071 -0.7071 0.7071 0.7071 -48.8128 119.3292)" style="fill:#808080;" width="12.188" height="38.779"/>
		
			<rect x="130.973" y="81.768" transform="matrix(0.7071 -0.7071 0.7071 0.7071 -31.383 126.5489)" style="fill:#808080;" width="12.188" height="38.779"/>
		
			<rect x="148.403" y="64.338" transform="matrix(0.7071 -0.7071 0.7071 0.7071 -13.9533 133.7687)" style="fill:#808080;" width="12.188" height="38.779"/>
	</g>
	
		<rect x="79.173" y="189.822" transform="matrix(0.7071 -0.7071 0.7071 0.7071 -129.3304 141.6477)" style="fill:#808080;" width="54.291" height="74.234"/>
</g>
<g>
</g>
<g>
</g>
<g>
</g>
<g>
</g>
<g>
</g>
<g>
</g>
<g>
</g>
<g>
</g>
<g>
</g>
<g>
</g>
<g>
</g>
<g>
</g>
<g>
</g>
<g>
</g>
<g>
</g>
</svg>
