<?xml version="1.0" encoding="iso-8859-1"?>
<!-- Generator: Adobe Illustrator 23.0.1, SVG Export Plug-In . SVG Version: 6.00 Build 0)  -->
<svg version="1.1" id="Layer_1" xmlns="http://www.w3.org/2000/svg" xmlns:xlink="http://www.w3.org/1999/xlink" x="0px" y="0px"
	 viewBox="0 0 512 512" style="enable-background:new 0 0 512 512;" xml:space="preserve">
<g>
	<path style="fill:#FAB922;" d="M480.987,246.113c0.21,5.816-2.089,10.361-5.18,14.553c-5.176,7.021-11.789,12.709-17.826,18.931
		c-0.516,0.532-1.054,1.042-1.576,1.567c-1.539,1.547-1.563,1.5-3.064-0.031c-3.958-4.039-8.004-7.992-11.934-12.056
		c-4.155-4.297-8.162-8.692-10.772-14.206c-3.335-7.044-1.87-15.921,3.705-21.047c4.941-4.543,13.042-5.448,19.082-2.024
		c1.172,0.664,1.973,0.658,3.153-0.039c7.056-4.165,18.255-2.078,22.566,6.796C480.359,241.061,481.101,243.683,480.987,246.113z
		 M434.715,246.995c0.158,2.881,1.208,5.672,2.874,8.243c4.065,6.273,9.583,11.246,14.831,16.454
		c0.81,0.804,1.463,2.164,2.583,2.193c1.159,0.03,1.734-1.413,2.535-2.216c4.442-4.454,9.097-8.721,12.905-13.76
		c3.191-4.222,5.645-8.67,4.264-14.333c-1.113-4.565-5.082-7.931-9.784-8.009c-3.586-0.06-6.455,1.396-8.7,4.117
		c-0.875,1.06-1.533,1.197-2.482,0.038c-1.352-1.65-3.008-2.991-5.103-3.603C441.249,233.959,434.722,238.974,434.715,246.995z"/>
	<path style="fill:#1E85C4;" d="M43.357,271.334c-4.979-0.058-9.008-1.712-11.826-5.834c-0.635-0.929-0.927-1.676,0.44-2.149
		c0.145-0.05,0.262-0.177,0.399-0.256c0.959-0.556,1.877-1.448,2.892-1.576c1.222-0.154,1.395,1.446,2.166,2.163
		c2.471,2.298,5.331,2.905,8.522,2.154c1.434-0.337,2.516-1.201,2.65-2.786c0.13-1.539-0.857-2.409-2.105-3.05
		c-2.085-1.071-4.411-1.419-6.597-2.191c-0.695-0.245-1.413-0.43-2.102-0.691c-4.063-1.544-5.859-3.967-5.775-7.759
		c0.086-3.846,2.201-6.745,6.237-7.799c5.171-1.35,10.982-0.804,15.063,4.086c0.733,0.879,1.136,1.54-0.189,2.152
		c-0.094,0.043-0.171,0.124-0.254,0.189c-0.921,0.709-1.749,1.753-2.786,2.04c-1.206,0.334-1.486-1.318-2.356-1.929
		c-2.006-1.41-4.12-2.131-6.552-1.744c-1.41,0.224-2.541,0.923-2.783,2.427c-0.231,1.433,0.572,2.376,1.8,3.04
		c1.93,1.045,4.085,1.395,6.141,2.048c1.815,0.577,3.629,1.155,5.225,2.229c4.292,2.888,4.564,9.233,0.567,12.55
		C49.532,270.808,46.422,271.216,43.357,271.334z"/>
	<path style="fill:#1E85C4;" d="M135.092,271.331c-5.406-0.043-9.498-1.774-12.317-6.057c-0.544-0.826-0.663-1.403,0.378-1.823
		c0.048-0.02,0.091-0.053,0.137-0.08c1.097-0.633,2.133-1.602,3.306-1.813c1.385-0.249,1.497,1.562,2.374,2.305
		c2.467,2.093,5.224,2.702,8.281,1.986c1.379-0.323,2.543-1.077,2.679-2.739c0.134-1.644-0.838-2.517-2.157-3.16
		c-2.103-1.026-4.402-1.454-6.614-2.148c-1.215-0.381-2.389-0.842-3.527-1.403c-2.707-1.336-4.235-3.515-4.264-6.535
		c-0.029-3.1,1.158-5.659,3.921-7.319c2.162-1.298,4.501-1.38,6.973-1.443c2.598-0.066,4.894,0.44,7.086,1.685
		c1.486,0.844,2.714,1.989,3.752,3.359c0.462,0.61,0.417,0.96-0.205,1.391c-0.955,0.662-1.897,1.353-2.768,2.119
		c-0.756,0.665-1.171,0.469-1.775-0.244c-1.925-2.274-4.364-3.442-7.411-3.092c-1.813,0.208-2.972,1.046-3.16,2.383
		c-0.228,1.616,0.683,2.559,2.017,3.238c1.9,0.968,3.997,1.324,6.006,1.949c1.314,0.409,2.612,0.848,3.844,1.463
		c2.616,1.306,4.417,3.189,4.612,6.297c0.223,3.574-1.159,6.261-4.272,8.04C139.716,270.991,137.195,271.218,135.092,271.331z"/>
	<path style="fill:#1E85C4;" d="M93.651,241.484c2.182,0.106,4.825-0.167,7.461,0.307c4.722,0.85,7.437,3.679,7.648,8.139
		c0.253,5.365-1.907,8.488-6.772,9.838c-1.598,0.443-3.219,0.544-4.866,0.574c-1.463,0.026-3.378-0.659-4.266,0.291
		c-0.87,0.931-0.218,2.825-0.255,4.295c-0.038,1.534-0.056,3.072,0.007,4.605c0.039,0.942-0.227,1.338-1.235,1.281
		c-1.372-0.078-2.755-0.075-4.127-0.001c-0.955,0.051-1.132-0.351-1.13-1.203c0.024-8.946,0.034-17.893-0.008-26.839
		c-0.005-1.085,0.375-1.338,1.37-1.305C89.382,241.53,91.289,241.484,93.651,241.484z M92.543,251.025
		c0.019,0.001,0.039,0.001,0.058,0.002c0,1.111,0.021,2.223-0.008,3.334c-0.018,0.682,0.111,1.091,0.942,1.078
		c1.904-0.028,3.813,0.053,5.694-0.313c1.983-0.387,3.084-1.746,3.137-3.795c0.061-2.39-0.845-3.778-2.905-4.288
		c-0.814-0.202-1.673-0.328-2.508-0.309c-1.409,0.033-3.272-0.641-4.095,0.31C92.157,247.855,92.604,249.66,92.543,251.025z"/>
	<path style="fill:#1E85C4;" d="M82.73,270.79c-1.871,0-3.766-0.032-5.659,0.016c-0.758,0.019-0.841-0.522-1.005-0.988
		c-0.544-1.541-1.098-3.082-1.552-4.651c-0.216-0.747-0.575-1.011-1.336-1.002c-2.643,0.033-5.287,0.038-7.929-0.007
		c-0.735-0.012-1.018,0.318-1.225,0.935c-0.519,1.549-1.115,3.074-1.606,4.631c-0.24,0.761-0.581,1.138-1.441,1.09
		c-1.265-0.071-2.539-0.072-3.804-0.001c-0.98,0.054-1.05-0.337-0.775-1.114c3.24-9.142,6.477-18.286,9.689-27.438
		c0.252-0.718,0.629-0.956,1.375-0.993c5.031-0.245,5.033-0.262,6.7,4.46c2.736,7.751,5.474,15.502,8.192,23.259
		C82.541,269.522,82.876,270.041,82.73,270.79z M69.177,259.555c0.739,0,1.482-0.048,2.217,0.011
		c1.116,0.091,1.235-0.336,0.889-1.296c-0.82-2.278-1.56-4.585-2.324-6.884c-0.116-0.348-0.168-0.821-0.578-0.846
		c-0.564-0.034-0.54,0.544-0.674,0.916c-0.588,1.635-1.156,3.277-1.745,4.911C65.812,259.558,65.808,259.557,69.177,259.555z"/>
	<path style="fill:#1E85C4;" d="M281.937,256.075c0.001-4.389,0.028-8.779-0.018-13.168c-0.011-1.062,0.258-1.46,1.406-1.448
		c5.552,0.058,11.106,0.051,16.658,0c1.059-0.01,1.314,0.341,1.325,1.348c0.046,4.152,0.077,4.152-4.046,4.152
		c-2.486,0-4.972,0.035-7.456-0.018c-0.984-0.021-1.433,0.203-1.363,1.306c0.097,1.528,0.062,3.067,0.011,4.599
		c-0.028,0.843,0.29,1.091,1.105,1.075c2.22-0.043,4.443,0.019,6.663-0.029c0.901-0.019,1.294,0.157,1.316,1.2
		c0.085,4.007,0.127,4.006-3.911,4.003c-1.269-0.001-2.543,0.064-3.806-0.019c-1.051-0.069-1.382,0.32-1.367,1.345
		c0.045,3.014-0.025,6.029,0.032,9.042c0.019,1.02-0.253,1.423-1.324,1.348c-1.263-0.089-2.541-0.082-3.805-0.002
		c-1.089,0.069-1.46-0.278-1.444-1.41C281.971,264.96,281.936,260.518,281.937,256.075z"/>
	<path style="fill:#1E85C4;" d="M319.939,270.798c-1.912,0-3.702-0.025-5.491,0.013c-0.672,0.014-0.982-0.305-1.081-0.887
		c-0.097-0.568-0.13-1.146-0.193-1.743c-0.655-0.088-0.902,0.486-1.28,0.789c-1.668,1.333-3.552,2.078-5.682,2.116
		c-3.815,0.069-5.333-1.495-6.081-3.927c-0.867-2.819-0.362-5.339,2.597-7.337c2.663-1.798,5.777-2.18,8.85-2.686
		c0.532-0.087,1.444,0.322,1.517-0.67c0.065-0.886-0.286-1.669-1.162-2.081c-0.787-0.37-1.62-0.445-2.477-0.321
		c-1.857,0.27-3.621,0.829-5.119,1.973c-0.751,0.574-1.093,0.404-1.624-0.281c-2.383-3.077-2.383-3.303,1.167-4.986
		c3.239-1.535,6.67-1.979,10.194-1.29c3.27,0.64,5.149,3.113,5.296,6.943c0.085,2.218,0.024,4.441,0.033,6.661
		C319.411,265.616,319.25,268.155,319.939,270.798z M313.076,262.451c-0.195-0.321,0.781-1.729-0.452-1.724
		c-2.144,0.009-4.365,0.359-5.977,2.057c-0.828,0.871-0.96,2.003,0.006,2.82c1.469,1.241,3.117,0.624,4.655,0.043
		C312.561,265.174,313.6,264.443,313.076,262.451z"/>
	<path style="fill:#1E85C4;" d="M162.739,267.761c-2.287,2.428-4.75,3.578-7.826,3.379c-3.354-0.216-5.462-2.146-5.513-5.504
		c-0.076-4.97-0.004-9.942-0.032-14.913c-0.005-0.811,0.236-1.143,1.076-1.113c1.373,0.048,2.752,0.067,4.124-0.004
		c0.992-0.051,1.259,0.318,1.248,1.279c-0.047,4.019-0.025,8.038-0.016,12.057c0.006,2.64,1.37,3.651,3.89,2.904
		c2.41-0.714,3.123-1.663,3.12-4.141c-0.004-3.543,0.023-7.087-0.021-10.629c-0.012-0.988,0.219-1.462,1.324-1.386
		c1.316,0.09,2.644,0.057,3.964,0.008c0.815-0.03,1.115,0.248,1.112,1.084c-0.022,6.346-0.018,12.692,0.005,19.038
		c0.003,0.773-0.298,1.009-1.029,0.987c-1.268-0.038-2.545-0.094-3.805,0.015c-1.272,0.11-1.748-0.342-1.565-1.59
		C162.847,268.874,162.772,268.497,162.739,267.761z"/>
	<path style="fill:#1E85C4;" d="M371.959,271.159c-6.759-0.024-10.77-4.19-10.735-11.151c0.033-6.692,4.276-10.912,10.927-10.865
		c6.643,0.047,10.68,4.334,10.649,11.309C382.771,267.11,378.648,271.182,371.959,271.159z M367.66,260.24
		c-0.078,1.297,0.135,2.641,0.669,3.932c0.537,1.299,1.102,2.434,2.855,2.456c1.907,0.025,3.533-0.196,4.385-2.2
		c1.155-2.717,1.168-5.434,0.05-8.143c-0.622-1.509-1.807-2.281-3.451-2.339c-1.715-0.061-2.93,0.709-3.71,2.207
		C367.807,257.405,367.635,258.757,367.66,260.24z"/>
	<path style="fill:#1E85C4;" d="M229.063,261.927c-1.903,0.001-3.807,0.032-5.709-0.013c-0.928-0.022-1.187,0.217-0.955,1.19
		c0.692,2.906,3.207,4.23,6.601,3.357c1.237-0.318,2.418-0.81,3.418-1.608c0.737-0.588,1.181-0.487,1.568,0.335
		c0.156,0.331,0.395,0.623,0.59,0.936c1.335,2.141,1.354,2.179-0.933,3.389c-3.582,1.896-7.383,2.178-11.214,1.042
		c-4.355-1.291-6.71-5.109-6.661-10.376c0.068-7.376,5.735-12.069,12.983-10.73c2.915,0.539,4.973,2.201,6.176,4.906
		c0.894,2.011,1.174,4.14,1.239,6.324c0.029,0.96-0.238,1.305-1.234,1.269C232.977,261.876,231.019,261.926,229.063,261.927z
		 M226.364,258.12c1.005,0,2.011-0.022,3.015,0.007c0.772,0.022,1.025-0.23,0.851-1.039c-0.44-2.038-1.743-3.206-3.727-3.225
		c-1.935-0.019-3.569,1.315-3.988,3.205c-0.165,0.745,0.017,1.091,0.834,1.061C224.353,258.091,225.359,258.12,226.364,258.12z"/>
	<path style="fill:#1E85C4;" d="M268.623,271.173c-3.188,0.001-6.169-0.685-8.835-2.539c-0.732-0.509-0.862-0.908-0.271-1.611
		c0.644-0.766,1.03-1.974,1.824-2.327c0.868-0.387,1.653,0.821,2.547,1.204c1.675,0.717,3.386,1.216,5.221,1.111
		c1.284-0.073,2.718-0.149,2.92-1.8c0.208-1.701-1.217-2.032-2.452-2.348c-1.737-0.444-3.53-0.641-5.241-1.22
		c-2.966-1.003-4.356-2.687-4.433-5.464c-0.083-2.958,1.352-5.281,4.16-6.244c4.364-1.498,8.518-0.848,12.431,1.572
		c0.785,0.485,0.762,0.908,0.291,1.624c-1.681,2.556-1.652,2.56-4.346,1.328c-1.563-0.715-3.192-1.124-4.924-0.779
		c-0.834,0.166-1.498,0.586-1.628,1.503c-0.138,0.972,0.513,1.427,1.283,1.759c1.422,0.613,2.978,0.666,4.457,1.046
		c0.613,0.158,1.242,0.262,1.844,0.453c2.872,0.909,4.52,2.672,4.557,4.841c0.065,3.777-1.324,6.014-4.426,7.142
		C271.991,271.009,270.32,271.195,268.623,271.173z"/>
	<path style="fill:#1E85C4;" d="M247.333,271.147c-2.997,0.06-5.813-0.675-8.397-2.309c-0.889-0.562-1.188-1.091-0.406-1.985
		c0.623-0.713,0.995-1.874,1.748-2.184c0.8-0.33,1.572,0.776,2.403,1.171c1.959,0.931,3.992,1.378,6.153,1.095
		c1.057-0.138,1.998-0.558,2.146-1.746c0.154-1.236-0.706-1.776-1.744-2.104c-2.114-0.669-4.371-0.763-6.447-1.583
		c-2.35-0.929-3.919-2.491-4.028-5.157c-0.109-2.669,0.983-4.7,3.328-6.028c1.127-0.639,2.367-0.924,3.63-1.038
		c3.406-0.309,6.63,0.255,9.557,2.139c0.736,0.474,1.057,0.924,0.373,1.735c-0.645,0.765-1,1.961-1.791,2.369
		c-0.901,0.465-1.693-0.746-2.596-1.104c-1.554-0.617-3.109-1.037-4.786-0.754c-0.905,0.153-1.624,0.58-1.727,1.577
		c-0.099,0.958,0.546,1.472,1.346,1.72c1.005,0.311,2.046,0.506,3.072,0.751c1.129,0.27,2.284,0.458,3.381,0.824
		c3.048,1.018,4.395,2.705,4.479,5.45c0.085,2.81-1.49,5.171-4.217,6.302C251.069,271.009,249.24,271.213,247.333,271.147z"/>
	<path style="fill:#1E85C4;" d="M410.633,271.134c-3.009,0.099-5.827-0.637-8.416-2.255c-0.893-0.559-1.361-1.1-0.425-2.07
		c0.654-0.678,1.022-1.829,1.78-2.152c0.724-0.308,1.473,0.77,2.269,1.145c1.959,0.923,3.979,1.418,6.146,1.143
		c1.124-0.143,2.151-0.57,2.239-1.842c0.082-1.188-0.808-1.74-1.853-2.048c-2.174-0.64-4.473-0.781-6.588-1.662
		c-3.891-1.62-5.064-6.3-2.374-9.559c1.054-1.276,2.471-2.09,4.051-2.315c3.352-0.477,6.697-0.464,9.807,1.21
		c0.371,0.2,0.72,0.444,1.096,0.633c0.955,0.478,1.122,0.965,0.411,1.928c-1.725,2.338-1.67,2.388-4.352,1.137
		c-1.318-0.614-2.689-0.953-4.143-0.83c-1.032,0.087-2.088,0.287-2.262,1.55c-0.181,1.313,0.825,1.732,1.831,1.984
		c1.789,0.449,3.61,0.774,5.396,1.235c2.936,0.757,4.638,2.41,4.842,4.593c0.337,3.608-0.729,5.689-3.707,7.159
		C414.578,271.005,412.645,271.219,410.633,271.134z"/>
	<path style="fill:#1E85C4;" d="M204.852,271.173c-3.974-0.062-7.376-1.356-9.092-5.164c-2.148-4.766-1.977-11.72,3.064-14.911
		c3.747-2.372,7.74-2.565,11.75-0.498c0.717,0.369,1.279,0.925,1.801,1.531c2.421,2.813,2.266,3.48-1.085,4.629
		c-0.35,0.12-0.717,0.204-1.046,0.366c-0.873,0.431-1.349,0.288-1.782-0.704c-0.838-1.919-2.1-2.654-3.82-2.432
		c-1.792,0.231-2.782,1.418-3.278,3.043c-0.681,2.233-0.638,4.492,0.05,6.714c0.461,1.489,1.29,2.659,3.016,2.868
		c1.871,0.226,3.286-0.555,3.979-2.212c0.549-1.311,1.185-1.529,2.352-0.918c0.463,0.243,0.984,0.379,1.484,0.548
		c2.456,0.833,2.451,0.84,1.01,2.973C211.24,269.99,208.366,271.221,204.852,271.173z"/>
	<path style="fill:#1E85C4;" d="M182.767,271.148c-7.728-0.037-11.121-6.084-10.022-13.152c1.247-8.018,8.497-9.963,14.263-8.213
		c2.568,0.779,4.088,2.683,5.119,5.07c0.293,0.679,0.105,0.959-0.552,1.13c-0.56,0.146-1.102,0.363-1.653,0.546
		c-0.851,0.282-1.729,0.842-2.548,0.766c-0.865-0.08-0.817-1.313-1.309-1.964c-1.615-2.138-4.979-1.889-6.18,0.664
		c-1.342,2.852-1.312,5.855,0.039,8.739c0.605,1.292,1.716,1.91,3.21,1.896c1.714-0.016,2.848-0.918,3.441-2.355
		c0.526-1.275,1.17-1.378,2.272-0.839c0.755,0.369,1.557,0.707,2.376,0.862c1.424,0.269,1.23,0.959,0.64,1.858
		C189.713,269.431,186.839,271.38,182.767,271.148z"/>
	<path style="fill:#1E85C4;" d="M333.94,271.178c-8.774-0.043-11.916-6.09-10.981-12.831c0.935-6.741,6.233-10.334,12.947-8.867
		c2.864,0.626,5.295,2.162,6.396,5.194c0.276,0.759,0.284,1.15-0.579,1.376c-0.97,0.254-1.915,0.602-2.868,0.917
		c-1.036,0.342-1.767,0.214-2.228-0.973c-0.58-1.493-1.815-2.119-3.416-2.046c-1.625,0.073-2.709,0.987-3.262,2.386
		c-1.052,2.659-1.064,5.417,0.037,8.049c1.252,2.992,4.704,3.056,6.785,0.136c0.635-0.892,1.047-1.52,2.266-0.852
		c0.419,0.229,1.102,0.15,1.654,0.351c2.304,0.839,2.344,0.888,0.932,2.974C339.614,269.955,336.754,271.252,333.94,271.178z"/>
	<path style="fill:#1E85C4;" d="M358.885,266.606c0.403,3.932,0.064,4.37-3.853,4.458c-1.205,0.027-2.436-0.105-3.618-0.344
		c-2.565-0.519-3.789-2.169-3.818-5.067c-0.032-3.28-0.045-6.562,0.026-9.841c0.024-1.123-0.184-1.59-1.453-1.546
		c-2.382,0.084-2.065,0.354-2.098-2.076c-0.005-0.37,0.043-0.747-0.01-1.11c-0.167-1.146,0.351-1.423,1.428-1.396
		c2.103,0.052,2.105-0.006,2.105-2.079c0-0.212-0.013-0.424,0.002-0.635c0.108-1.46-0.665-3.629,0.295-4.225
		c1.452-0.902,3.581-0.228,5.421-0.286c0.734-0.023,0.671,0.504,0.672,0.979c0.003,1.587,0.071,3.179-0.021,4.761
		c-0.067,1.146,0.213,1.666,1.465,1.531c0.994-0.107,2.009-0.001,3.013-0.026c0.647-0.016,1.017,0.195,0.949,0.902
		c-0.005,0.052-0.002,0.106,0.002,0.159c0.228,3.53,0.228,3.518-3.382,3.536c-2.323,0.011-1.999-0.287-2.018,2.022
		c-0.019,2.328-0.01,4.656-0.001,6.984c0.009,2.435,0.897,3.309,3.323,3.3C357.836,266.604,358.357,266.606,358.885,266.606z"/>
	<path style="fill:#1E85C4;" d="M393.026,252.68c1.636-1.871,3.374-3.156,5.716-3.432c0.966-0.114,1.555-0.004,1.382,1.153
		c-0.031,0.207,0.002,0.423-0.002,0.634c-0.021,1.11,0.258,2.348-0.143,3.299c-0.518,1.23-1.936,0.324-2.942,0.571
		c-2.765,0.679-4.148,2.224-4.152,5.019c-0.004,3.174-0.03,6.348,0.007,9.521c0.011,0.951-0.133,1.48-1.287,1.374
		c-1.259-0.115-2.542-0.1-3.805-0.006c-1.175,0.088-1.398-0.416-1.39-1.471c0.043-6.083,0.047-12.166,0.006-18.249
		c-0.007-1.076,0.266-1.566,1.413-1.479c0.999,0.077,2.019,0.105,3.012-0.006c1.531-0.172,2.336,0.257,2.052,1.948
		C392.845,251.836,392.956,252.141,393.026,252.68z"/>
	<path style="fill:#FDFEFE;" d="M434.715,246.995c0.006-8.02,6.534-13.036,13.923-10.877c2.095,0.612,3.751,1.953,5.103,3.603
		c0.949,1.159,1.607,1.022,2.482-0.038c2.245-2.721,5.114-4.177,8.7-4.117c4.701,0.078,8.671,3.444,9.784,8.009
		c1.381,5.663-1.073,10.111-4.264,14.333c-3.809,5.039-8.463,9.307-12.905,13.76c-0.801,0.803-1.376,2.246-2.535,2.216
		c-1.12-0.029-1.773-1.39-2.583-2.193c-5.248-5.208-10.765-10.181-14.831-16.454C435.923,252.667,434.873,249.876,434.715,246.995z"
		/>
</g>
</svg>
